#N canvas 197 95 930 295 10;
#X obj 6 162 cnv 15 180 72 empty empty empty 20 12 0 14 -204800 -66577
0;
#N canvas 540 53 705 552 tumblers 1;
#X obj 6 8 inlet;
#X text 50 9 (a toggle);
#X obj 27 423 outlet;
#X obj 157 423 outlet;
#X obj 277 423 outlet;
#X text 275 443 (tumbler #3);
#X text 155 443 (tumbler #2);
#X text 25 443 (tumbler #1);
#X obj 34 215 unpack f f f;
#X floatatom 33 297 5 0 0 0 - - -;
#X floatatom 94 295 5 0 0 0 - - -;
#X floatatom 186 295 5 0 0 0 - - -;
#X obj 23 250 i;
#X obj 90 251 i;
#X obj 165 247 i;
#X obj 28 71 r \$0-onOff;
#X obj 29 105 tgl 15 0 empty empty empty 17 7 0 10 -262144 -1 -1 0
1;
#X floatatom 229 230 5 0 0 0 - - -;
#X obj 161 339 pipe 300;
#X obj 280 344 pipe 200;
#X obj 27 340 pipe 400;
#X obj 20 134 metro 250;
#X obj 19 168 tripleRand 9;
#X connect 0 0 21 0;
#X connect 8 0 12 0;
#X connect 8 0 17 0;
#X connect 8 1 13 0;
#X connect 8 2 14 0;
#X connect 9 0 20 0;
#X connect 10 0 18 0;
#X connect 11 0 19 0;
#X connect 12 0 9 0;
#X connect 13 0 10 0;
#X connect 14 0 11 0;
#X connect 15 0 16 0;
#X connect 16 0 21 0;
#X connect 18 0 3 0;
#X connect 19 0 4 0;
#X connect 20 0 2 0;
#X connect 21 0 22 0;
#X connect 22 0 8 0;
#X restore 9 171 pd tumblers;
#X obj 9 197 nbx 2 32 -1e+37 1e+37 0 0 empty empty empty 0 -8 0 18
-262144 -1 -1 1 256;
#X obj 70 197 nbx 2 32 -1e+37 1e+37 0 0 empty empty empty 0 -8 0 18
-262144 -1 -1 3 256;
#X obj 131 197 nbx 2 32 -1e+37 1e+37 0 0 empty empty empty 0 -8 0 18
-262144 -1 -1 1 256;
#X obj 9 72 tgl 36 0 empty empty empty 17 7 0 10 -4034 -1 -1 0 1;
#X obj 200 162 cnv 15 200 36 empty empty empty 20 12 0 14 -232576 -66577
0;
#N canvas 337 144 879 618 logic 0;
#X obj 553 45 inlet;
#X obj 694 40 inlet;
#X obj 824 40 inlet;
#X obj -2 811 outlet;
#X obj 169 811 outlet;
#X obj 340 811 outlet;
#X text 383 803 jackpot (3-of-a-kind) \; (a bang);
#X text 212 803 win (2-of-a-kind) \; (a bang);
#X text 41 803 loose (no matches) \; (a bang);
#X obj 18 21 inlet;
#X text 59 15 lever pull \; (a 0 or 1);
#X text 601 32 tumbler #1 \; (a number);
#X text 736 34 tumbler #2 \; (a number);
#X text 866 34 tumbler #3 \; (a number);
#X obj 481 336 spigot;
#X obj 170 340 spigot;
#X obj 317 337 spigot;
#X obj 3 51 expr if($f1==0 \, 1 \, 0);
#X text 67 70 only run logic when stopped;
#X obj 182 554 expr if(($f1 == 0) && ($f2 == 0) \, 1 \, 0);
#X text 608 555 Logic for lose and for jackpot;
#X text 231 579 If neither (win);
#X floatatom 561 75 5 0 0 0 - - -;
#X floatatom 695 75 5 0 0 0 - - -;
#X floatatom 824 73 5 0 0 0 - - -;
#X floatatom 191 375 5 0 0 0 - - -;
#X floatatom 347 375 5 0 0 0 - - -;
#X floatatom 506 373 5 0 0 0 - - -;
#X floatatom -44 49 5 0 0 0 - - -;
#X obj 389 67 bng 15 250 50 0 empty empty empty 17 7 0 10 -262144 -1
-1;
#X obj 155 488 expr if(($f1 != $f2) && ($f2 != $f3) && ($f1 != $f3)
\, 1 \, 0) \; if(($f1==$f2) && ($f2==$f3) \, 1 \, 0) \;;
#X floatatom 145 584 5 0 0 0 - - -;
#X floatatom 521 574 5 0 0 0 - - -;
#X floatatom 234 629 5 0 0 0 - - -;
#X obj 429 24 t b b b;
#X connect 0 0 22 0;
#X connect 1 0 23 0;
#X connect 2 0 24 0;
#X connect 9 0 17 0;
#X connect 9 0 28 0;
#X connect 14 0 27 0;
#X connect 14 0 30 2;
#X connect 15 0 25 0;
#X connect 15 0 30 0;
#X connect 16 0 26 0;
#X connect 16 0 30 1;
#X connect 17 0 15 1;
#X connect 17 0 16 1;
#X connect 17 0 14 1;
#X connect 17 0 29 0;
#X connect 19 0 33 0;
#X connect 19 0 4 0;
#X connect 22 0 15 0;
#X connect 23 0 16 0;
#X connect 24 0 14 0;
#X connect 29 0 34 0;
#X connect 30 0 19 0;
#X connect 30 0 31 0;
#X connect 30 0 3 0;
#X connect 30 1 19 1;
#X connect 30 1 32 0;
#X connect 30 1 5 0;
#X connect 34 0 22 0;
#X connect 34 1 23 0;
#X connect 34 2 24 0;
#X restore 206 172 pd logic;
#X obj 9 239 s \$0-T1;
#X obj 70 239 s \$0-T2;
#X obj 131 239 s \$0-T3;
#X obj 280 139 r \$0-T1;
#X obj 336 139 r \$0-T2;
#X obj 392 139 r \$0-T3;
#X obj 206 201 s \$0-loose;
#X obj 280 204 s \$0-win;
#X obj 342 204 s \$0-jackpot;
#X obj 160 162 comment 33 18 helvetica ? 0 0 0 0 #1;
#X obj 372 168 comment 0 18 helvetica ? 0 0 0 0 #2;
#X obj 456 162 cnv 15 200 120 empty empty empty 20 12 0 14 -261682
-66577 0;
#X obj 628 168 comment 0 18 helvetica ? 0 0 0 0 #3;
#N canvas 193 427 1123 645 musicalFeedback 1;
#X obj 221 557 outlet;
#X msg 221 535 \$1 100 30;
#X text 8 573 Note message \; \$1 = MIDI note number \; 2nd and 3rd
values are velocity and duration \, respectively;
#X obj -5 26 inlet;
#X obj 186 21 inlet;
#X obj 356 21 inlet;
#X text 401 14 jackpot (3-of-a-kind) \; (a bang);
#X text 230 14 win (2-of-a-kind) \; (a bang);
#X text 59 14 loose (no matches) \; (a bang);
#X msg -48 408 47;
#X msg -7 409 47;
#X msg 34 409 46;
#X msg 70 409 45;
#X text -6 354 LOSE;
#X obj 193 380 sel 0 1 2 3;
#X text 240 355 WIN;
#X obj 440 379 sel 0 1 2 3 4 5 6 7;
#X text 503 350 JACKPOT;
#X obj -50 373 sel 0 1 2 3;
#X msg 428 413 80;
#X msg 494 414 80;
#X msg 559 414 80;
#X msg 594 412 91;
#X msg 627 412 91;
#X msg 663 412 91;
#X msg 48 144 0;
#X obj 115 192 bng 15 250 50 0 empty empty empty 17 7 0 10 -262144
-1 -1;
#X obj 114 126 bng 15 250 50 0 empty empty empty 17 7 0 10 -262144
-1 -1;
#X obj 189 220 metro 250;
#X obj 189 266 counter 4;
#X obj 192 307 % 4;
#X msg 248 176 0;
#X obj 295 145 bng 15 250 50 0 empty empty empty 17 7 0 10 -262144
-1 -1;
#X obj 329 185 delay 800;
#X obj 323 208 bng 15 250 50 0 empty empty empty 17 7 0 10 -262144
-1 -1;
#X obj -38 233 counter 4;
#X obj -38 275 % 4;
#X obj 436 197 metro 150;
#X obj 438 311 % 8;
#X msg 491 139 0;
#X obj 538 178 bng 15 250 50 0 empty empty empty 17 7 0 10 -262144
-1 -1;
#X obj 536 90 bng 15 250 50 0 empty empty empty 17 7 0 10 -262144 -1
-1;
#X obj 566 134 delay 1000;
#X msg 460 414 90;
#X msg 526 414 90;
#X obj 438 254 counter 8;
#X obj 115 156 delay 900;
#X obj 308 558 noteout 1;
#X obj 329 529 makenote 50 100;
#X obj -34 194 metro 350;
#X msg 241 411 68;
#X msg 287 412 69;
#X msg 193 410 64;
#X connect 1 0 0 0;
#X connect 3 0 27 0;
#X connect 3 0 49 0;
#X connect 4 0 32 0;
#X connect 4 0 28 0;
#X connect 5 0 37 0;
#X connect 5 0 41 0;
#X connect 9 0 48 0;
#X connect 10 0 48 0;
#X connect 11 0 48 0;
#X connect 12 0 48 0;
#X connect 14 0 52 0;
#X connect 14 1 50 0;
#X connect 14 2 51 0;
#X connect 16 0 19 0;
#X connect 16 1 43 0;
#X connect 16 2 20 0;
#X connect 16 3 44 0;
#X connect 16 4 21 0;
#X connect 16 5 22 0;
#X connect 16 6 23 0;
#X connect 16 7 24 0;
#X connect 18 0 9 0;
#X connect 18 1 10 0;
#X connect 18 2 11 0;
#X connect 18 3 12 0;
#X connect 19 0 48 0;
#X connect 20 0 48 0;
#X connect 21 0 48 0;
#X connect 22 0 48 0;
#X connect 23 0 48 0;
#X connect 24 0 48 0;
#X connect 25 0 49 0;
#X connect 26 0 25 0;
#X connect 27 0 46 0;
#X connect 28 0 29 0;
#X connect 29 0 30 0;
#X connect 30 0 14 0;
#X connect 31 0 28 0;
#X connect 32 0 33 0;
#X connect 33 0 34 0;
#X connect 34 0 31 0;
#X connect 35 0 36 0;
#X connect 36 0 18 0;
#X connect 37 0 45 0;
#X connect 38 0 16 0;
#X connect 39 0 37 0;
#X connect 40 0 39 0;
#X connect 41 0 42 0;
#X connect 42 0 40 0;
#X connect 43 0 48 0;
#X connect 44 0 48 0;
#X connect 45 0 38 0;
#X connect 46 0 26 0;
#X connect 48 0 47 0;
#X connect 48 0 47 1;
#X connect 49 0 35 0;
#X connect 50 0 48 0;
#X connect 51 0 48 0;
#X connect 52 0 48 0;
#X restore 462 172 pd musicalFeedback;
#X obj 462 139 r \$0-loose;
#X obj 536 139 r \$0-win;
#X obj 598 139 r \$0-jackpot;
#X obj 462 197 meep~;
#X obj 462 255 dac~;
#X text 53 68 Lever pull \; (this starts and \; stops the machine)
;
#X obj 696 162 cnv 15 200 92 empty empty empty 20 12 0 14 -204786 -66577
0;
#X obj 868 168 comment 0 18 helvetica ? 0 0 0 0 #4;
#X obj 702 139 r \$0-loose;
#X obj 776 139 r \$0-win;
#X obj 838 139 r \$0-jackpot;
#X obj 702 197 nbx 2 32 -1e+37 1e+37 0 0 empty empty empty 0 -8 0 18
-262144 -1 -1 3 256;
#X obj 763 197 nbx 2 32 -1e+37 1e+37 0 0 empty empty empty 0 -8 0 18
-262144 -1 -1 1 256;
#X obj 824 197 nbx 2 32 -1e+37 1e+37 0 0 empty empty empty 0 -8 0 18
-262144 -1 -1 0 256;
#N canvas 489 49 726 503 scoreboard 1;
#X obj 16 21 inlet;
#X obj 186 21 inlet;
#X obj 356 21 inlet;
#X text 401 14 jackpot (3-of-a-kind) \; (a bang);
#X text 230 14 win (2-of-a-kind) \; (a bang);
#X text 59 14 loose (no matches) \; (a bang);
#X obj 16 278 outlet;
#X obj 186 278 outlet;
#X obj 356 278 outlet;
#X text 59 271 Total # of losses \; (a number);
#X text 229 271 Total # of wins \; (a number);
#X text 400 271 Total # of jackpots \; (a number);
#X floatatom 33 62 5 0 0 0 - - -;
#X floatatom 207 64 5 0 0 0 - - -;
#X floatatom 392 65 5 0 0 0 - - -;
#X obj 27 197 cup;
#X obj 29 173 bng 15 250 50 0 empty empty empty 17 7 0 10 -262144 -1
-1;
#X floatatom 16 235 5 0 0 0 - - -;
#X obj 21 145 spigot;
#X obj 30 103 expr if($f1 == 1 \, 1 \, 0);
#X obj 197 171 bng 15 250 50 0 empty empty empty 17 7 0 10 -262144
-1 -1;
#X obj 193 148 spigot;
#X obj 209 109 expr if($f1 == 1 \, 1 \, 0);
#X obj 203 196 cup;
#X floatatom 185 233 5 0 0 0 - - -;
#X obj 362 137 spigot;
#X obj 385 100 expr if($f1 == 1 \, 1 \, 0);
#X obj 361 170 bng 15 250 50 0 empty empty empty 17 7 0 10 -262144
-1 -1;
#X obj 367 200 cup;
#X floatatom 355 238 5 0 0 0 - - -;
#X connect 0 0 12 0;
#X connect 0 0 18 0;
#X connect 1 0 13 0;
#X connect 1 0 21 0;
#X connect 2 0 14 0;
#X connect 2 0 25 0;
#X connect 12 0 19 0;
#X connect 13 0 22 0;
#X connect 14 0 26 0;
#X connect 15 0 17 0;
#X connect 16 0 15 0;
#X connect 17 0 6 0;
#X connect 18 0 16 0;
#X connect 19 0 18 1;
#X connect 20 0 23 0;
#X connect 21 0 20 0;
#X connect 22 0 21 1;
#X connect 23 0 24 0;
#X connect 24 0 7 0;
#X connect 25 0 27 0;
#X connect 26 0 25 1;
#X connect 27 0 28 0;
#X connect 28 0 29 0;
#X connect 29 0 8 0;
#X restore 702 172 pd scoreboard;
#X text 703 231 Losses;
#X text 764 231 Wins;
#X text 824 231 Jackpots;
#X obj 9 118 s \$0-onOff;
#X obj 9 139 r \$0-onOff;
#X obj 206 139 r \$0-onOff;
#X obj 11 8 comment 0 18 helvetica ? 0 0 0 0 [Richard Rizzo];
#X obj 13 33 comment 0 18 helvetica ? 0 0 0 0 SLOT MACHINE;
#X connect 1 0 2 0;
#X connect 1 1 3 0;
#X connect 1 2 4 0;
#X connect 2 0 8 0;
#X connect 3 0 9 0;
#X connect 4 0 10 0;
#X connect 5 0 40 0;
#X connect 7 0 14 0;
#X connect 7 1 15 0;
#X connect 7 2 16 0;
#X connect 11 0 7 1;
#X connect 12 0 7 2;
#X connect 13 0 7 3;
#X connect 21 0 25 0;
#X connect 22 0 21 0;
#X connect 23 0 21 1;
#X connect 24 0 21 2;
#X connect 25 0 26 0;
#X connect 25 1 26 1;
#X connect 30 0 36 0;
#X connect 31 0 36 1;
#X connect 32 0 36 2;
#X connect 36 0 33 0;
#X connect 36 1 34 0;
#X connect 36 2 35 0;
#X connect 41 0 1 0;
#X connect 42 0 7 0;
